<svg width="16" height="15" viewBox="0 0 16 15" fill="none" xmlns="http://www.w3.org/2000/svg">
<path d="M9.22592 1.07727C9.82107 0.0467245 11.1387 -0.305845 12.1693 0.289198C13.1999 0.884327 13.5537 2.20197 12.9588 3.23261C12.5684 3.90882 11.8659 4.28969 11.1385 4.30621C10.679 4.38199 10.2893 4.61531 10.071 4.99323C9.85148 5.37361 9.84668 5.83069 10.014 6.26893C10.3597 6.90599 10.3785 7.70174 9.98958 8.37543C9.97806 8.39538 9.96501 8.41432 9.95296 8.43376C9.94211 8.45399 9.93196 8.47477 9.9204 8.4948C9.53001 9.17093 8.82816 9.55184 8.10078 9.5684C7.64127 9.64414 7.25163 9.87752 7.03328 10.2554C6.81375 10.6358 6.80896 11.0928 6.97631 11.5311C7.32197 12.1682 7.34018 12.9639 6.95122 13.6376C6.35612 14.6682 5.03781 15.0214 4.00713 14.4264C2.97641 13.8313 2.62397 12.513 3.21906 11.4823C3.60795 10.809 4.30497 10.4267 5.02919 10.4073C5.49223 10.3329 5.88515 10.0999 6.10482 9.71964C6.32295 9.34164 6.33043 8.88785 6.16654 8.45207C5.81739 7.81391 5.79793 7.01549 6.18824 6.33946C6.19908 6.3207 6.21016 6.30217 6.22147 6.28385C6.23284 6.26256 6.24458 6.24116 6.25674 6.2201C6.64555 5.54678 7.3427 5.16463 8.06687 5.14514C8.52994 5.07075 8.92352 4.83773 9.14318 4.45745C9.36127 4.07949 9.36872 3.6256 9.2049 3.18988C8.85574 2.55172 8.83561 1.7533 9.22592 1.07727Z" fill="black"/>
<path d="M11.837 6.04444C12.4322 5.01408 13.7492 4.66143 14.7797 5.25637C15.8104 5.85145 16.1642 7.16907 15.5692 8.19978C15.1788 8.87594 14.4769 9.25751 13.7495 9.27406C13.2901 9.3498 12.9004 9.58251 12.6821 9.9604C12.4625 10.3408 12.4577 10.7978 12.6251 11.2361C12.9707 11.8732 12.9889 12.6689 12.6 13.3426C12.0049 14.3733 10.6866 14.7264 9.6559 14.1314C8.62518 13.5363 8.27274 12.218 8.86783 11.1873C9.25672 10.514 9.95375 10.1317 10.678 10.1123C11.141 10.0379 11.5339 9.80487 11.7536 9.42462C11.9717 9.04661 11.9792 8.59284 11.8153 8.15705C11.4662 7.51889 11.4467 6.72047 11.837 6.04444Z" fill="black"/>
<path d="M3.2584 1.09219C3.85349 0.0615027 5.1711 -0.291638 6.2018 0.303441C7.23236 0.898458 7.58599 2.2162 6.99124 3.24685C6.60083 3.92306 5.89838 4.30461 5.17093 4.32113C4.71148 4.39692 4.32173 4.63024 4.10344 5.00815C3.88405 5.38853 3.87913 5.84565 4.04647 6.28385C4.39205 6.92081 4.41081 7.71607 4.02205 8.38968C3.42697 9.4204 2.10801 9.77419 1.07729 9.17911C0.0466454 8.58401 -0.305818 7.26571 0.289214 6.23502C0.678009 5.56161 1.37512 5.17887 2.09934 5.15939C2.56235 5.085 2.95597 4.85256 3.17565 4.47237C3.39372 4.09447 3.40112 3.64046 3.23737 3.2048C2.88822 2.56664 2.86809 1.76822 3.2584 1.09219Z" fill="black"/>
</svg>
