<svg width="16" height="30" viewBox="0 0 16 30" fill="none" xmlns="http://www.w3.org/2000/svg">
<path d="M7.85742 25.7275C8.2014 25.7275 8.48027 26.0067 8.48047 26.3506C8.48047 26.6947 8.20152 26.9736 7.85742 26.9736C7.51332 26.9736 7.23437 26.6947 7.23438 26.3506C7.23457 26.0067 7.51344 25.7275 7.85742 25.7275Z" fill="black"/>
<path fill-rule="evenodd" clip-rule="evenodd" d="M11.7139 0C13.923 6.65884e-07 15.7139 1.79086 15.7139 4V25.1191C15.7138 27.3282 13.9229 29.1191 11.7139 29.1191H4C1.79092 29.1191 9.92291e-05 27.3282 0 25.1191V4L0.00488281 3.79395C0.112122 1.68057 1.85997 -9.35438e-08 4 0H11.7139ZM1 25.1191C1.0001 26.7759 2.34321 28.1191 4 28.1191H11.7139C13.3707 28.1191 14.7138 26.7759 14.7139 25.1191V4C14.7139 2.34315 13.3707 1 11.7139 1H4C2.34315 1 1 2.34315 1 4V25.1191Z" fill="black"/>
</svg>
