<svg width="46" height="30" viewBox="0 0 46 30" fill="none" xmlns="http://www.w3.org/2000/svg">
<path d="M22.5664 25.1045C22.9102 25.1048 23.1893 25.3838 23.1895 25.7275C23.1895 26.0715 22.9103 26.3503 22.5664 26.3506C22.2223 26.3506 21.9434 26.0716 21.9434 25.7275C21.9436 25.3836 22.2224 25.1045 22.5664 25.1045Z" fill="black"/>
<path fill-rule="evenodd" clip-rule="evenodd" d="M41.3379 0.00488281C43.451 0.112363 45.1318 1.86013 45.1318 4V25.1191C45.1317 27.2589 43.451 29.0068 41.3379 29.1143L41.1318 29.1191H4.00098C1.7919 29.1191 9.89426e-05 27.3282 0 25.1191V4C0 1.79086 1.79184 5.78824e-08 4.00098 0H41.1318L41.3379 0.00488281ZM4.00098 1C2.34412 1 1.00098 2.34315 1.00098 4V25.1191C1.00108 26.7759 2.34418 28.1191 4.00098 28.1191H41.1318C42.7884 28.1189 44.1317 26.7757 44.1318 25.1191V4C44.1318 2.34331 42.7885 1.00026 41.1318 1H4.00098Z" fill="black"/>
</svg>
